<?xml version="1.0" encoding="utf-8"?>
<!-- Generator: Adobe Illustrator 25.1.0, SVG Export Plug-In . SVG Version: 6.00 Build 0)  -->
<svg version="1.1" id="Layer_1" xmlns="http://www.w3.org/2000/svg" xmlns:xlink="http://www.w3.org/1999/xlink" x="0px" y="0px"
	 viewBox="0 0 317.1 380.8" style="enable-background:new 0 0 317.1 380.8;" xml:space="preserve">
<style type="text/css">
	.st0{fill-rule:evenodd;clip-rule:evenodd;fill:#6E9E0B;stroke:#000000;}
</style>
<path class="st0" d="M294.4,316.5c-2.7-2.2-6.6-5.3-12-4.9s-17.3,1.3-21.7,0.4c-4.4-0.9-8,0.4-9.3-3.1s-1.8-15.1-5.3-19.5
	s-13.3-9.3-14.6-13.7c-1.3-4.4-1.8-6.2,0-10.6s5.8-8.4,11.5-11.1c5.8-2.7,11.1-4.4,11.1-4.4s11.5,10.6,12,13.3
	c0.4,2.7-0.9,5.3,1.8,6.6c2.7,1.3,7.1-2.7,8-9.7c0.9-7.1-2.2-15.5-1.8-20.4c0.4-4.9,3.5-9.3,0.9-14.2s-8.9-12.4-13.7-15.9
	c-4.9-3.5-13.3-4-14.6-8.4s8.4-21.3,8.4-25.2c0-4-1.3-11.5,1.8-17.7s6.6-19.5,19.9-27.9s22.6-12,24.8-18.2c2.2-6.2,0.4-6.2-2.2-8
	c-2.7-1.8,7.1-12,10.2-21.7c3.1-9.7,8.4-29.2,6.2-31s-8.9,0-10.2,3.5c-1.3,3.5-6.8,25.3-6.8,25.3s1.3-16.4-0.9-21.3
	c-2.2-4.9-4.9-9.7-7.5-8.4s-1.3,30.1-1.3,30.1s-2.7-6.6-4.4-10.6c-1.8-4-3.1-7.5-5.3-5.3C277.2,66.7,279,88,279,88s-3.5-5.3-6.2-6.6
	c-2.7-1.3-4-2.2-5.8,0.9s-1.3,7.1-1.3,7.1s-1.3-4.4-4.4-4.4c-3.1,0-7.1,1.3-5.8,4.9c1.3,3.5-12,0.4-11.1,6.6c0.9,6.2,0,12-3.5,12
	s-5.8,4.9-12.8,3.1c-4.4,2.7,2.2,19-0.9,16.8c-3.1-2.2-10.2-4-12.8,0.9c-2.7,4.9,3.5,10.6,0,15.1c-3.5,4.4,0,8.4-5.3,12
	c-5.3,3.5-5.8,0.9-7.1,8.9c-1.3,8-1.3,11.5-3.5,14.6s-4.9,5.3-4.4,12c0.4,6.6,4.4,12.8-0.9,12c-5.3-0.9-7.5-6.2-11.5-8.4
	s-4.9-2.7-10.2-6.6s-6.2-9.3-9.3-10.6s-5.8-0.9-10.2-2.7s-8.9-5.8-11.1-7.5c-2.2-1.8-2.2-2.7-6.2-6.2s-8-5.8-10.6-11.5
	s-2.2-6.2-5.3-14.6s-2.2-11.1-4-14.6s-1.8-6.6-4.9-9.7c-3.1-3.1-5.8-6.6-6.2-3.5s-0.4,7.5-0.4,10.2s-4-4-7.5-10.6s-1.8-7.5-3.1-13.3
	s0-9.7-0.4-16.4c-0.4-6.6-1.3-7.1-1.8-16.8s-1.2-11.4-1.2-18.5s0.3-9.9,0.3-15.2c-1.5-4-3.3-5.3-4.4-4.9c-1.4,0.4-3.4,0.4-4.5,5.8
	c-0.9,5.8-1.7,10-2.6,20.8C79,59.7,79.4,69,77.7,71.7c-1.8,2.7-3.1,2.2-4.4-0.9c-1.3-3.1-1.3-4.4-3.1-9.7s-1.7-8.8-2.6-16.2
	c0.4-11.1-0.1-16.1-0.5-24.5s0-8.7-0.9-13.7c-0.8-4.8-1.9-5.9-5.8-5.3c-2.2,2.7-2.7,9.3-3.5,15.1c-0.9,5.8-0.9,5.3-1.3,15.9
	s-0.1,14.9,0.8,18.4c0.2,3.9,1,7.9,0.5,9.5c-2.7-1.8-2.7-4.9-5.3-11.1c-2.7-6.2-4.9-11.5-5.8-18.6s-3.2-9.7-4.8-17.5
	c-3.5-7.5-4.3-9.3-6.8-9.5c-2.6,1.8-3.8,3.5-3.5,9.3c1.3,6.2,1.3,9.3,3.5,15.5s1.8,8.9,4.9,15.5c1.9,5.8,2.1,7.8,3.1,9.7
	c-4.4,0.4-4.4-1.3-7.1-4.4c-4.5-8.5-2.8-6.7-4.4-9.3c-2.5-5.1-4.6-7-6.6-6.2c-2.2,3.5-3.1,4.4-1.3,8.4c1.8,4,0.4,1.3,3.1,7.1
	s5.3,8,1.8,7.5s-4,0-6.2-3.5s0-4-4.9-6.2s-8-6.2-9.3-3.1C6,47,5.5,46.6,8.6,51c3.1,4.4,6.2,5.8,4.9,8c-1.3,2.2-4.9,2.7-7.5,2.7
	s-3.1,0.4-1.8,4.9C5.5,71,6,71,6.4,73.2c0.4,2.2-1.8,4-1.8,4s-4-2.7-0.9,4s4.9,4.9,6.6,8c1.8,3.1,3.5,6.2,0.9,6.2S5.9,95,6.3,97.2
	c0.4,2.2,4.4,4.4,2.2,5.8c-2.2,1.3-4-0.4-5.8,1.3c-1.8,1.8,0,4.9,0,7.1s0.4,4-0.4,6.2c-0.9,2.2-2.7,4.4-1.3,6.6
	c1.3,2.2-0.4,2.7,3.1,4.9c3.5,2.2,5.8,1.8,5.8,4s0.4,1.8-1.8,3.5S3.2,137,5,141s1.3,3.5,2.2,7.1c0.9,3.5-0.4,1.8,3.5,10.2
	c4,8.4,8,14.6,12,16.8s3.1,7.1,0.4,8s-3.1,4.9-0.4,10.6c2.7,5.8,5.8,13.3,6.6,17.3c0.9,4,1.8,4.4,6.2,9.3s8,9.3,12,10.6
	s4.4,5.8,7.1,8s3.5,3.5,9.3,3.5s5.8-1.3,11.5,0.4c5.8,1.8,8.4,3.5,8.9,6.2s2.2,4,5.8,3.1c3.5-0.9,0.9,1.8,5.3,3.5
	c4.4,1.7,3.1,4,8.4,3.5s8-4.4,9.3,0s1.8,8,7.5,4c5.8-4,8.9-14.6,12-3.5s3.1,13.7-0.4,16.8s-4.4,5.8-12.4,8.9s-8,6.6-13.7,8.9
	s-6.2,3.1-15.1,7.5s-11.1,5.8-16.4,8.9s-6.6,6.2-8,9.3s-7.1,6.6-4.9,11.1c2.2,4.4,6.6,1.8,6.6,4s-0.9,4,0.9,8.4
	c1.8,4.4,1.3,6.2,7.5,8s9.7,2.7,12.8,1.3c3.1-1.3,4,4,7.1,2.7s4.4-5.3,6.6-3.1c2.2,2.2-1.8,3.5,3.5,4.9c5.3,1.3,5.8-2.2,6.2,0.9
	s-1.3,6.2,4.4,3.1s4-9.3,8.4-4.9c4.4,4.4,2.2,9.7,10.2,5.3s5.3-4.9,11.5-4.4c6.2,0.4,6.2,0.9,8.4-4s-2.2-3.5,7.5-4
	c9.7-0.4,4.9,5.8,11.1-2.7s7.5-16.8,10.2-7.5s0,11.5,4,14.2S213,355,213,355s0.4,10.2,2.2,12c1.8,1.8,6.2-1.8,10.2,1.8
	c4,3.5,1.3,5.8,4.9,8.9c3.5,3.1,10.6,3.5,10.6,3.5s-4.9-4-6.2-7.5s-3.1-9.7-3.1-9.7s7.1,2.7,10.2,3.1c3.1,0.4,8-0.4,8-0.4l-1.3,10.2
	c0,0,8.4,0,8.4-3.5s-2.7-13.3-4.9-14.6c-2.2-1.3-5.3-0.9-5.3-0.9s0.9-4.4-1.3-5.3s-3.5,0-7.1,0c-3.6,0-19.5-4.9-19.5-4.9
	s0.4-11.5-1.3-16.4c-1.8-4.9-10.2-18.6-6.2-20.8s7.1-0.4,9.3,1.8c2.2,2.2,6.2,8.9,14.6,10.6c8.4,1.7,15.1,2.7,15.1,2.7
	s1.8,0.9,1.8,4.4s-3.1,7.1,1.3,11.5s8,8.4,12.8,6.2c4.8-2.2,5.8-4.9,5.8-4.9s-3.5,2.2-9.3,0.9c-5.8-1.3-3.5-12.4-3.1-14.6
	c0.4-2.2,4.9-4.4,7.5-2.2c2.6,2.2,6.2,8,4,10.2c-2.2,2.2,6.2-4.9,5.8-8s-1.8-5.3-1.8-5.3s5.8,0,9.3-0.4s6.2-2.2,6.2,0.4
	s-1.8,14.6,2.2,7.1C296.6,322.2,298.4,320.5,294.4,316.5L294.4,316.5z"/>
</svg>
