<?xml version="1.0" encoding="utf-8"?>
<!-- Generator: Adobe Illustrator 25.1.0, SVG Export Plug-In . SVG Version: 6.00 Build 0)  -->
<svg version="1.1" id="Layer_1" xmlns="http://www.w3.org/2000/svg" xmlns:xlink="http://www.w3.org/1999/xlink" x="0px" y="0px"
	 viewBox="0 0 798 602.5" style="enable-background:new 0 0 798 602.5;" xml:space="preserve">
<style type="text/css">
	.st0{fill:#2E3192;}
	.st1{fill:#1C75BC;}
</style>
<g id="XMLID_1_">
	<g>
		<polygon class="st0" points="490.9,552.6 490.9,552.9 303.3,552.9 303.3,552.6 346.4,290.9 346.4,290.9 440.1,290.9 440.3,290.9 
					"/>
		<polygon class="st0" points="249.3,454.4 216.9,552.6 216.9,552.9 51.1,552.9 50.7,552.6 113.9,455 114.1,454.9 249.1,454.2 		"/>
		<g id="XMLID_3_">
			<g>
				<polygon class="st1" points="435.2,262.8 435.2,263 350.6,262.8 350.6,262.6 379.9,84.8 399.5,84.8 400,84.7 				"/>
			</g>
		</g>
		<polygon class="st1" points="355.7,131.7 355.7,132 260.2,421.4 260.1,421.9 136.1,421.9 323.4,132.4 323.4,131.9 		"/>
	</g>
</g>
<g id="XMLID_2_">
	<g>
		<polygon class="st1" points="395.9,38.9 490.9,188 442.8,187.8 		"/>
	</g>
</g>
<g id="XMLID_4_">
	<g>
		<polygon class="st0" points="500.1,206.7 728.6,552.9 562.4,552.9 562.1,552.9 562,552.9 447.6,207 448.4,206.7 		"/>
	</g>
	<g>
	</g>
</g>
</svg>
